<svg xmlns="http://www.w3.org/2000/svg" width="73.102" height="9.505" viewBox="0 0 73.102 9.505">
  <g id="Group_2" data-name="Group 2" transform="translate(0 0)">
    <path id="Vector" d="M8.544,8.6c0,.615-.188.908-.565.908a1.418,1.418,0,0,1-.942-.564L1.5,2.881V9.409H0V.814A1,1,0,0,1,.166.242.563.563,0,0,1,.372.058.512.512,0,0,1,.633,0,1.228,1.228,0,0,1,1.5.484L7.038,6.531V0H8.544Z" transform="translate(0 0)" fill="#fff"/>
    <path id="Vector-2" data-name="Vector" d="M7.6,1.657H1.532V9.505H0V0H7.6Zm-.4,3.856H2.175V3.856H7.195Z" transform="translate(13.292 0)" fill="#fff"/>
    <path id="Vector-3" data-name="Vector" d="M1.9,9.505H0V0H1.9Z" transform="translate(25.634 0)" fill="#fff"/>
    <path id="Vector-4" data-name="Vector" d="M8.544,8.6c0,.615-.188.908-.565.908a1.418,1.418,0,0,1-.942-.564L1.5,2.881V9.409H0V.814A1,1,0,0,1,.166.242.563.563,0,0,1,.372.058.512.512,0,0,1,.633,0,1.228,1.228,0,0,1,1.5.484L7.038,6.531V0H8.544Z" transform="translate(32.281 0)" fill="#fff"/>
    <path id="Vector-5" data-name="Vector" d="M1.9,9.505H0V0H1.9Z" transform="translate(45.572 0)" fill="#fff"/>
    <path id="Vector-6" data-name="Vector" d="M9.494,1.657H5.606V9.505H3.9V1.657H0V0H9.494Z" transform="translate(51.266 0)" fill="#fff"/>
    <path id="Vector-7" data-name="Vector" d="M10.443,0l-4.4,6.363V9.505H4.515V6.33L0,0H1.986L5.32,4.676,8.445,0Z" transform="translate(62.659 0)" fill="#fff"/>
  </g>
</svg>
