<svg xmlns="http://www.w3.org/2000/svg" width="174.457" height="28.753" viewBox="0 0 174.457 28.753">
  <g id="Group_7" data-name="Group 7" transform="translate(-1423 -4858.235)">
    <g id="Facebook_Negative" data-name="Facebook / Negative" transform="translate(1423 4858.235)">
      <rect id="Facebook_Negative-2" data-name="Facebook / Negative" width="28" height="28" fill="#171717"/>
      <path id="Vector" d="M28.457,14.228A14.228,14.228,0,1,0,12.005,28.284V18.341H8.392V14.228h3.613V11.094c0-3.566,2.124-5.536,5.374-5.536a21.889,21.889,0,0,1,3.185.278v3.5H18.77a2.057,2.057,0,0,0-2.319,2.223v2.668H20.4l-.631,4.113H16.451v9.943A14.232,14.232,0,0,0,28.457,14.228Z" transform="translate(0 0.297)" fill="#fff"/>
    </g>
    <g id="Twitter_Negative" data-name="Twitter / Negative" transform="translate(1469.885 4858.235)">
      <rect id="Twitter_Negative-2" data-name="Twitter / Negative" width="28.457" height="28.457" transform="translate(0)" fill="#171717"/>
      <path id="Vector-2" data-name="Vector" d="M8.952,23.122c10.736,0,16.609-8.9,16.609-16.609,0-.25-.006-.506-.017-.756a11.857,11.857,0,0,0,2.912-3.022,11.511,11.511,0,0,1-3.351.917A5.87,5.87,0,0,0,27.673.423a11.736,11.736,0,0,1-3.706,1.417,5.846,5.846,0,0,0-9.953,5.323A16.582,16.582,0,0,1,7.351,5.394,16.582,16.582,0,0,1,1.984,1.067,5.845,5.845,0,0,0,3.79,8.858,5.845,5.845,0,0,1,1.145,8.13V8.2a5.836,5.836,0,0,0,4.684,5.725,5.8,5.8,0,0,1-2.634.1,5.85,5.85,0,0,0,5.451,4.057A11.71,11.71,0,0,1,0,20.5,16.563,16.563,0,0,0,8.952,23.122Z" transform="translate(0 2.667)" fill="#fff"/>
    </g>
    <g id="Instagram_Negative" data-name="Instagram / Negative" transform="translate(1516.77 4858.532)">
      <rect id="Instagram_Negative-2" data-name="Instagram / Negative" width="28.457" height="28.457" transform="translate(0 0)" fill="#171717"/>
      <g id="Group" transform="translate(0 0)">
        <path id="Vector-3" data-name="Vector" d="M14.228,2.562c3.8,0,4.252.017,5.747.083a7.8,7.8,0,0,1,2.64.489A4.4,4.4,0,0,1,24.249,4.2,4.376,4.376,0,0,1,25.311,5.83,7.829,7.829,0,0,1,25.8,8.47c.067,1.5.083,1.951.083,5.747s-.017,4.252-.083,5.747a7.8,7.8,0,0,1-.489,2.64,4.69,4.69,0,0,1-2.7,2.7,7.829,7.829,0,0,1-2.64.489c-1.5.067-1.951.083-5.747.083s-4.252-.017-5.747-.083a7.8,7.8,0,0,1-2.64-.489,4.4,4.4,0,0,1-1.634-1.062A4.376,4.376,0,0,1,3.146,22.6a7.829,7.829,0,0,1-.489-2.64c-.067-1.5-.083-1.951-.083-5.747s.017-4.252.083-5.747a7.8,7.8,0,0,1,.489-2.64A4.4,4.4,0,0,1,4.207,4.2,4.376,4.376,0,0,1,5.841,3.135a7.829,7.829,0,0,1,2.64-.489C9.976,2.579,10.427,2.562,14.228,2.562Zm0-2.562C10.366,0,9.882.017,8.365.083A10.4,10.4,0,0,0,4.913.745,6.945,6.945,0,0,0,2.39,2.39,6.972,6.972,0,0,0,.745,4.908,10.426,10.426,0,0,0,.083,8.359C.017,9.882,0,10.366,0,14.228s.017,4.346.083,5.864a10.4,10.4,0,0,0,.661,3.451A6.945,6.945,0,0,0,2.39,26.067a6.955,6.955,0,0,0,2.518,1.64,10.426,10.426,0,0,0,3.451.661c1.517.067,2,.083,5.864.083s4.346-.017,5.864-.083a10.4,10.4,0,0,0,3.451-.661A7.269,7.269,0,0,0,27.7,23.549a10.426,10.426,0,0,0,.661-3.451c.067-1.517.083-2,.083-5.864s-.017-4.346-.083-5.864A10.4,10.4,0,0,0,27.7,4.919,6.664,6.664,0,0,0,26.067,2.39,6.955,6.955,0,0,0,23.549.75,10.426,10.426,0,0,0,20.1.089C18.575.017,18.091,0,14.228,0Z" transform="translate(0 0)" fill="#fff"/>
        <path id="Vector-4" data-name="Vector" d="M7.309,0a7.309,7.309,0,1,0,7.309,7.309A7.31,7.31,0,0,0,7.309,0Zm0,12.05A4.741,4.741,0,1,1,12.05,7.309,4.742,4.742,0,0,1,7.309,12.05Z" transform="translate(6.92 6.92)" fill="#fff"/>
        <path id="Vector-5" data-name="Vector" d="M3.413,1.706A1.706,1.706,0,1,1,1.706,0,1.707,1.707,0,0,1,3.413,1.706Z" transform="translate(20.12 4.924)" fill="#fff"/>
      </g>
    </g>
    <g id="LinkedIn_Negative" data-name="LinkedIn / Negative" transform="translate(1569 4858.235)">
      <rect id="LinkedIn_Negative-2" data-name="LinkedIn / Negative" width="28" height="28" transform="translate(0.348)" fill="#171717"/>
      <g id="Group-2" data-name="Group" transform="translate(0 0.297)">
        <path id="Vector-6" data-name="Vector" d="M26.35,0H2.1A2.075,2.075,0,0,0,0,2.051V26.4a2.079,2.079,0,0,0,2.1,2.056H26.35a2.083,2.083,0,0,0,2.106-2.051V2.051A2.08,2.08,0,0,0,26.35,0ZM8.442,24.249H4.218V10.666H8.442ZM6.33,8.815A2.445,2.445,0,1,1,8.776,6.369,2.447,2.447,0,0,1,6.33,8.815ZM24.249,24.249H20.031v-6.6c0-1.573-.028-3.6-2.2-3.6-2.2,0-2.529,1.717-2.529,3.49v6.714H11.094V10.666H15.14v1.856H15.2a4.432,4.432,0,0,1,3.991-2.2c4.274,0,5.063,2.812,5.063,6.469v7.453Z" fill="#fff"/>
      </g>
    </g>
  </g>
</svg>
