<svg xmlns="http://www.w3.org/2000/svg" xmlns:xlink="http://www.w3.org/1999/xlink" width="86.031" height="86.114" viewBox="0 0 86.031 86.114">
  <defs>
    <filter id="Vector" x="0" y="0" width="86.031" height="86.114" filterUnits="userSpaceOnUse">
      <feOffset dy="3" input="SourceAlpha"/>
      <feGaussianBlur stdDeviation="3" result="blur"/>
      <feFlood flood-opacity="0.161"/>
      <feComposite operator="in" in2="blur"/>
      <feComposite in="SourceGraphic"/>
    </filter>
  </defs>
  <g id="Group_3" data-name="Group 3" transform="translate(9 6)">
    <g transform="matrix(1, 0, 0, 1, -9, -6)" filter="url(#Vector)">
      <path id="Vector-2" data-name="Vector" d="M68.031,34.054a34.075,34.075,0,1,1-2.589-13.033A34.086,34.086,0,0,1,68.031,34.054Z" transform="translate(9 6)" fill="#fff"/>
    </g>
    <path id="Vector-3" data-name="Vector" d="M.013.04V3C1.369,3,1.4,3.878,1.4,3.878V13.19s-.045.881-1.4.881v2.958H6.686V14.07c-1.356,0-1.388-.91-1.388-.91V8.624l3.541,8.392v.013H14.4V3.878S14.437,3,15.793,3V.008H9.107V3c1.356,0,1.388.846,1.388.846v4.06L7.106,0H.011Z" transform="translate(10.933 25.543)" fill="#113b4c"/>
    <path id="Vector-4" data-name="Vector" d="M5.908,3.883S5.934,3,7.273,3V0H.008V3c1.339,0,1.363.855,1.363.855v9.332s-.032.881-1.371.881v2.962H7.289V14.069c-1.339,0-1.371-.913-1.371-.913Z" transform="translate(35.231 25.543)" fill="#113b4c"/>
    <path id="Vector-5" data-name="Vector" d="M5.921,3.883S5.945,3,7.284,3V0H.008V3c1.339,0,1.363.857,1.363.857v9.332s-.032.881-1.371.881v2.962H7.289V14.069c-1.339,0-1.368-.913-1.368-.913Z" transform="translate(26.727 25.543)" fill="#113b4c"/>
    <path id="Vector-6" data-name="Vector" d="M3.237,17.028h6.934v-3c-1.277,0-1.3-.879-1.3-.879V4.218c0-.953.52-.953.52-.953.739.029.7,1.053.7,1.053V6.929h3.28V0H0V6.932H3.28V4.32s-.043-1.027.7-1.053c0,0,.55,0,.55.808v9.107s-.03.879-1.3.879v2.962Z" transform="translate(42.52 25.543)" fill="#113b4c"/>
  </g>
</svg>
