<svg xmlns="http://www.w3.org/2000/svg" xmlns:xlink="http://www.w3.org/1999/xlink" width="587" height="51" viewBox="0 0 587 51">
  <defs>
    <clipPath id="clip-path">
      <rect width="587" height="51" fill="none"/>
    </clipPath>
  </defs>
  <g id="Repeat_Grid_50" data-name="Repeat Grid 50" opacity="0.41" clip-path="url(#clip-path)">
    <g transform="translate(-728 -733)">
      <circle id="Ellipse_5" data-name="Ellipse 5" cx="6.5" cy="6.5" r="6.5" transform="translate(728 733)" fill="#507ee3"/>
    </g>
    <g transform="translate(-695 -733)">
      <circle id="Ellipse_5-2" data-name="Ellipse 5" cx="6.5" cy="6.5" r="6.5" transform="translate(728 733)" fill="#507ee3"/>
    </g>
    <g transform="translate(-662 -733)">
      <circle id="Ellipse_5-3" data-name="Ellipse 5" cx="6.5" cy="6.5" r="6.5" transform="translate(728 733)" fill="#507ee3"/>
    </g>
    <g transform="translate(-629 -733)">
      <circle id="Ellipse_5-4" data-name="Ellipse 5" cx="6.5" cy="6.5" r="6.5" transform="translate(728 733)" fill="#507ee3"/>
    </g>
    <g transform="translate(-596 -733)">
      <circle id="Ellipse_5-5" data-name="Ellipse 5" cx="6.5" cy="6.5" r="6.5" transform="translate(728 733)" fill="#507ee3"/>
    </g>
    <g transform="translate(-563 -733)">
      <circle id="Ellipse_5-6" data-name="Ellipse 5" cx="6.5" cy="6.5" r="6.5" transform="translate(728 733)" fill="#507ee3"/>
    </g>
    <g transform="translate(-530 -733)">
      <circle id="Ellipse_5-7" data-name="Ellipse 5" cx="6.5" cy="6.5" r="6.5" transform="translate(728 733)" fill="#507ee3"/>
    </g>
    <g transform="translate(-530 -733)">
      <circle id="Ellipse_5-7" data-name="Ellipse 5" cx="6.5" cy="6.5" r="6.5" transform="translate(728 733)" fill="#507ee3"/>
    </g>
    <g transform="translate(-530 -733)">
      <circle id="Ellipse_5-7" data-name="Ellipse 5" cx="6.5" cy="6.5" r="6.5" transform="translate(728 733)" fill="#507ee3"/>
    </g>
    <g transform="translate(-530 -733)">
      <circle id="Ellipse_5-7" data-name="Ellipse 5" cx="6.5" cy="6.5" r="6.5" transform="translate(728 733)" fill="#507ee3"/>
    </g>
    </g>
</svg>
