<svg xmlns="http://www.w3.org/2000/svg" xmlns:xlink="http://www.w3.org/1999/xlink" width="122" height="185" viewBox="0 0 122 185">
  <defs>
    <clipPath id="clip-path">
      <rect width="122" height="185" fill="none"/>
    </clipPath>
  </defs>
  <g id="Repeat_Grid_45" data-name="Repeat Grid 45" opacity="0.41" clip-path="url(#clip-path)">
    <g transform="translate(-728 -733)">
      <circle id="Ellipse_5" data-name="Ellipse 5" cx="6.5" cy="6.5" r="6.5" transform="translate(728 733)" fill="#507ee3"/>
    </g>
    <g transform="translate(-695 -733)">
      <circle id="Ellipse_5-2" data-name="Ellipse 5" cx="6.5" cy="6.5" r="6.5" transform="translate(728 733)" fill="#507ee3"/>
    </g>
    <g transform="translate(-662 -733)">
      <circle id="Ellipse_5-3" data-name="Ellipse 5" cx="6.5" cy="6.5" r="6.5" transform="translate(728 733)" fill="#507ee3"/>
    </g>
    <g transform="translate(-629 -733)">
      <circle id="Ellipse_5-4" data-name="Ellipse 5" cx="6.5" cy="6.5" r="6.5" transform="translate(728 733)" fill="#507ee3"/>
    </g>
    <g transform="translate(-728 -700)">
      <circle id="Ellipse_5-5" data-name="Ellipse 5" cx="6.5" cy="6.5" r="6.5" transform="translate(728 733)" fill="#507ee3"/>
    </g>
    <g transform="translate(-695 -700)">
      <circle id="Ellipse_5-6" data-name="Ellipse 5" cx="6.5" cy="6.5" r="6.5" transform="translate(728 733)" fill="#507ee3"/>
    </g>
    <g transform="translate(-662 -700)">
      <circle id="Ellipse_5-7" data-name="Ellipse 5" cx="6.5" cy="6.5" r="6.5" transform="translate(728 733)" fill="#507ee3"/>
    </g>
    <g transform="translate(-629 -700)">
      <circle id="Ellipse_5-8" data-name="Ellipse 5" cx="6.5" cy="6.5" r="6.5" transform="translate(728 733)" fill="#507ee3"/>
    </g>
    <g transform="translate(-728 -667)">
      <circle id="Ellipse_5-9" data-name="Ellipse 5" cx="6.5" cy="6.5" r="6.5" transform="translate(728 733)" fill="#507ee3"/>
    </g>
    <g transform="translate(-695 -667)">
      <circle id="Ellipse_5-10" data-name="Ellipse 5" cx="6.5" cy="6.5" r="6.5" transform="translate(728 733)" fill="#507ee3"/>
    </g>
    <g transform="translate(-662 -667)">
      <circle id="Ellipse_5-11" data-name="Ellipse 5" cx="6.5" cy="6.5" r="6.5" transform="translate(728 733)" fill="#507ee3"/>
    </g>
    <g transform="translate(-629 -667)">
      <circle id="Ellipse_5-12" data-name="Ellipse 5" cx="6.5" cy="6.5" r="6.5" transform="translate(728 733)" fill="#507ee3"/>
    </g>
    <g transform="translate(-728 -634)">
      <circle id="Ellipse_5-13" data-name="Ellipse 5" cx="6.5" cy="6.5" r="6.5" transform="translate(728 733)" fill="#507ee3"/>
    </g>
    <g transform="translate(-695 -634)">
      <circle id="Ellipse_5-14" data-name="Ellipse 5" cx="6.5" cy="6.5" r="6.5" transform="translate(728 733)" fill="#507ee3"/>
    </g>
    <g transform="translate(-662 -634)">
      <circle id="Ellipse_5-15" data-name="Ellipse 5" cx="6.5" cy="6.5" r="6.5" transform="translate(728 733)" fill="#507ee3"/>
    </g>
    <g transform="translate(-629 -634)">
      <circle id="Ellipse_5-16" data-name="Ellipse 5" cx="6.5" cy="6.5" r="6.5" transform="translate(728 733)" fill="#507ee3"/>
    </g>
    <g transform="translate(-728 -601)">
      <circle id="Ellipse_5-17" data-name="Ellipse 5" cx="6.5" cy="6.5" r="6.5" transform="translate(728 733)" fill="#507ee3"/>
    </g>
    <g transform="translate(-695 -601)">
      <circle id="Ellipse_5-18" data-name="Ellipse 5" cx="6.5" cy="6.5" r="6.5" transform="translate(728 733)" fill="#507ee3"/>
    </g>
    <g transform="translate(-662 -601)">
      <circle id="Ellipse_5-19" data-name="Ellipse 5" cx="6.5" cy="6.5" r="6.5" transform="translate(728 733)" fill="#507ee3"/>
    </g>
    <g transform="translate(-629 -601)">
      <circle id="Ellipse_5-20" data-name="Ellipse 5" cx="6.5" cy="6.5" r="6.5" transform="translate(728 733)" fill="#507ee3"/>
    </g>
    <g transform="translate(-728 -568)">
      <circle id="Ellipse_5-21" data-name="Ellipse 5" cx="6.5" cy="6.5" r="6.5" transform="translate(728 733)" fill="#507ee3"/>
    </g>
    <g transform="translate(-695 -568)">
      <circle id="Ellipse_5-22" data-name="Ellipse 5" cx="6.5" cy="6.5" r="6.5" transform="translate(728 733)" fill="#507ee3"/>
    </g>
    <g transform="translate(-662 -568)">
      <circle id="Ellipse_5-23" data-name="Ellipse 5" cx="6.5" cy="6.5" r="6.5" transform="translate(728 733)" fill="#507ee3"/>
    </g>
    <g transform="translate(-629 -568)">
      <circle id="Ellipse_5-24" data-name="Ellipse 5" cx="6.5" cy="6.5" r="6.5" transform="translate(728 733)" fill="#507ee3"/>
    </g>
  </g>
</svg>
