<svg xmlns="http://www.w3.org/2000/svg" xmlns:xlink="http://www.w3.org/1999/xlink" width="51" height="587" viewBox="0 0 51 587">
  <defs>
    <clipPath id="clip-path">
      <rect width="587" height="51" fill="none"/>
    </clipPath>
  </defs>
  <g id="Repeat_Grid_53" data-name="Repeat Grid 53" transform="translate(51) rotate(90)" opacity="0.41" clip-path="url(#clip-path)">
    <g transform="translate(-728 -733)">
      <circle id="Ellipse_5" data-name="Ellipse 5" cx="6.5" cy="6.5" r="6.5" transform="translate(728 733)" fill="#507ee3"/>
    </g>
    <g transform="translate(-695 -733)">
      <circle id="Ellipse_5-2" data-name="Ellipse 5" cx="6.5" cy="6.5" r="6.5" transform="translate(728 733)" fill="#507ee3"/>
    </g>
    <g transform="translate(-662 -733)">
      <circle id="Ellipse_5-3" data-name="Ellipse 5" cx="6.5" cy="6.5" r="6.5" transform="translate(728 733)" fill="#507ee3"/>
    </g>
    <g transform="translate(-629 -733)">
      <circle id="Ellipse_5-4" data-name="Ellipse 5" cx="6.5" cy="6.5" r="6.5" transform="translate(728 733)" fill="#507ee3"/>
    </g>
    <g transform="translate(-596 -733)">
      <circle id="Ellipse_5-5" data-name="Ellipse 5" cx="6.5" cy="6.5" r="6.5" transform="translate(728 733)" fill="#507ee3"/>
    </g>
    <g transform="translate(-563 -733)">
      <circle id="Ellipse_5-6" data-name="Ellipse 5" cx="6.5" cy="6.5" r="6.5" transform="translate(728 733)" fill="#507ee3"/>
    </g>
    <g transform="translate(-530 -733)">
      <circle id="Ellipse_5-7" data-name="Ellipse 5" cx="6.5" cy="6.5" r="6.5" transform="translate(728 733)" fill="#507ee3"/>
    </g>
    <g transform="translate(-497 -733)">
      <circle id="Ellipse_5-8" data-name="Ellipse 5" cx="6.5" cy="6.5" r="6.5" transform="translate(728 733)" fill="#507ee3"/>
    </g>
    <g transform="translate(-464 -733)">
      <circle id="Ellipse_5-9" data-name="Ellipse 5" cx="6.5" cy="6.5" r="6.5" transform="translate(728 733)" fill="#507ee3"/>
    </g>
    <g transform="translate(-431 -733)">
      <circle id="Ellipse_5-10" data-name="Ellipse 5" cx="6.5" cy="6.5" r="6.5" transform="translate(728 733)" fill="#507ee3"/>
    </g>
    <g transform="translate(-398 -733)">
      <circle id="Ellipse_5-11" data-name="Ellipse 5" cx="6.5" cy="6.5" r="6.5" transform="translate(728 733)" fill="#507ee3"/>
    </g>
    <g transform="translate(-365 -733)">
      <circle id="Ellipse_5-12" data-name="Ellipse 5" cx="6.5" cy="6.5" r="6.5" transform="translate(728 733)" fill="#507ee3"/>
    </g>
    <g transform="translate(-332 -733)">
      <circle id="Ellipse_5-13" data-name="Ellipse 5" cx="6.5" cy="6.5" r="6.5" transform="translate(728 733)" fill="#507ee3"/>
    </g>
    <g transform="translate(-299 -733)">
      <circle id="Ellipse_5-14" data-name="Ellipse 5" cx="6.5" cy="6.5" r="6.5" transform="translate(728 733)" fill="#507ee3"/>
    </g>
    <g transform="translate(-266 -733)">
      <circle id="Ellipse_5-15" data-name="Ellipse 5" cx="6.5" cy="6.5" r="6.5" transform="translate(728 733)" fill="#507ee3"/>
    </g>
    <g transform="translate(-233 -733)">
      <circle id="Ellipse_5-16" data-name="Ellipse 5" cx="6.5" cy="6.5" r="6.5" transform="translate(728 733)" fill="#507ee3"/>
    </g>
    <g transform="translate(-200 -733)">
      <circle id="Ellipse_5-17" data-name="Ellipse 5" cx="6.5" cy="6.5" r="6.5" transform="translate(728 733)" fill="#507ee3"/>
    </g>
    <g transform="translate(-167 -733)">
      <circle id="Ellipse_5-18" data-name="Ellipse 5" cx="6.5" cy="6.5" r="6.5" transform="translate(728 733)" fill="#507ee3"/>
    </g>
    <g transform="translate(-728 -700)">
      <circle id="Ellipse_5-19" data-name="Ellipse 5" cx="6.5" cy="6.5" r="6.5" transform="translate(728 733)" fill="#507ee3"/>
    </g>
    <g transform="translate(-695 -700)">
      <circle id="Ellipse_5-20" data-name="Ellipse 5" cx="6.5" cy="6.5" r="6.5" transform="translate(728 733)" fill="#507ee3"/>
    </g>
    <g transform="translate(-662 -700)">
      <circle id="Ellipse_5-21" data-name="Ellipse 5" cx="6.5" cy="6.5" r="6.5" transform="translate(728 733)" fill="#507ee3"/>
    </g>
    <g transform="translate(-629 -700)">
      <circle id="Ellipse_5-22" data-name="Ellipse 5" cx="6.5" cy="6.5" r="6.5" transform="translate(728 733)" fill="#507ee3"/>
    </g>
    <g transform="translate(-596 -700)">
      <circle id="Ellipse_5-23" data-name="Ellipse 5" cx="6.5" cy="6.5" r="6.5" transform="translate(728 733)" fill="#507ee3"/>
    </g>
    <g transform="translate(-563 -700)">
      <circle id="Ellipse_5-24" data-name="Ellipse 5" cx="6.5" cy="6.5" r="6.5" transform="translate(728 733)" fill="#507ee3"/>
    </g>
    <g transform="translate(-530 -700)">
      <circle id="Ellipse_5-25" data-name="Ellipse 5" cx="6.5" cy="6.5" r="6.5" transform="translate(728 733)" fill="#507ee3"/>
    </g>
    <g transform="translate(-497 -700)">
      <circle id="Ellipse_5-26" data-name="Ellipse 5" cx="6.5" cy="6.5" r="6.5" transform="translate(728 733)" fill="#507ee3"/>
    </g>
    <g transform="translate(-464 -700)">
      <circle id="Ellipse_5-27" data-name="Ellipse 5" cx="6.5" cy="6.5" r="6.5" transform="translate(728 733)" fill="#507ee3"/>
    </g>
    <g transform="translate(-431 -700)">
      <circle id="Ellipse_5-28" data-name="Ellipse 5" cx="6.5" cy="6.5" r="6.5" transform="translate(728 733)" fill="#507ee3"/>
    </g>
    <g transform="translate(-398 -700)">
      <circle id="Ellipse_5-29" data-name="Ellipse 5" cx="6.5" cy="6.5" r="6.5" transform="translate(728 733)" fill="#507ee3"/>
    </g>
    <g transform="translate(-365 -700)">
      <circle id="Ellipse_5-30" data-name="Ellipse 5" cx="6.5" cy="6.5" r="6.5" transform="translate(728 733)" fill="#507ee3"/>
    </g>
    <g transform="translate(-332 -700)">
      <circle id="Ellipse_5-31" data-name="Ellipse 5" cx="6.5" cy="6.5" r="6.5" transform="translate(728 733)" fill="#507ee3"/>
    </g>
    <g transform="translate(-299 -700)">
      <circle id="Ellipse_5-32" data-name="Ellipse 5" cx="6.5" cy="6.5" r="6.5" transform="translate(728 733)" fill="#507ee3"/>
    </g>
    <g transform="translate(-266 -700)">
      <circle id="Ellipse_5-33" data-name="Ellipse 5" cx="6.5" cy="6.5" r="6.5" transform="translate(728 733)" fill="#507ee3"/>
    </g>
    <g transform="translate(-233 -700)">
      <circle id="Ellipse_5-34" data-name="Ellipse 5" cx="6.5" cy="6.5" r="6.5" transform="translate(728 733)" fill="#507ee3"/>
    </g>
    <g transform="translate(-200 -700)">
      <circle id="Ellipse_5-35" data-name="Ellipse 5" cx="6.5" cy="6.5" r="6.5" transform="translate(728 733)" fill="#507ee3"/>
    </g>
    <g transform="translate(-167 -700)">
      <circle id="Ellipse_5-36" data-name="Ellipse 5" cx="6.5" cy="6.5" r="6.5" transform="translate(728 733)" fill="#507ee3"/>
    </g>
  </g>
</svg>
